<svg width="320" height="562" viewBox="0 0 320 562" fill="none" xmlns="http://www.w3.org/2000/svg">
<path d="M320 375H0V562H320V375Z" fill="#5A5A5A"/>
<path d="M320 187H0V375H320V187Z" fill="#727272"/>
<path d="M320 0H0V187H320V0Z" fill="#858585"/>
<path d="M17 0V126" stroke="url(#paint0_linear)" stroke-width="6"/>
<path d="M17.5 134C21.6421 134 25 130.642 25 126.5C25 122.358 21.6421 119 17.5 119C13.3579 119 10 122.358 10 126.5C10 130.642 13.3579 134 17.5 134Z" fill="#D0F4F2"/>
<path d="M42 0V70" stroke="url(#paint1_linear)" stroke-width="6"/>
<path d="M42.5 78C46.6421 78 50 74.6421 50 70.5C50 66.3579 46.6421 63 42.5 63C38.3579 63 35 66.3579 35 70.5C35 74.6421 38.3579 78 42.5 78Z" fill="#D0F4F2"/>
<path d="M298 0V94" stroke="url(#paint2_linear)" stroke-width="6"/>
<path d="M298.5 102C302.642 102 306 98.6421 306 94.5C306 90.3579 302.642 87 298.5 87C294.358 87 291 90.3579 291 94.5C291 98.6421 294.358 102 298.5 102Z" fill="#D0F4F2"/>
<path d="M276 187V281" stroke="url(#paint3_linear)" stroke-width="6"/>
<path d="M276 187V281" stroke="url(#paint4_linear)" stroke-width="6"/>
<path d="M276 187V281" stroke="url(#paint5_linear)" stroke-width="6"/>
<path d="M276.5 289C280.642 289 284 285.642 284 281.5C284 277.358 280.642 274 276.5 274C272.358 274 269 277.358 269 281.5C269 285.642 272.358 289 276.5 289Z" fill="#EDD0F4"/>
<path d="M44 184L43 349" stroke="url(#paint6_linear)" stroke-width="6"/>
<path d="M44 184L43 349" stroke="url(#paint7_linear)" stroke-width="6"/>
<path d="M44 184L43 349" stroke="url(#paint8_linear)" stroke-width="6"/>
<path d="M43.5 357C47.6421 357 51 353.642 51 349.5C51 345.358 47.6421 342 43.5 342C39.3579 342 36 345.358 36 349.5C36 353.642 39.3579 357 43.5 357Z" fill="#EDD0F4"/>
<path d="M17 186V236" stroke="url(#paint9_linear)" stroke-width="6"/>
<path d="M17 186V236" stroke="url(#paint10_linear)" stroke-width="6"/>
<path d="M17 186V236" stroke="url(#paint11_linear)" stroke-width="6"/>
<path d="M17.5 244C21.6421 244 25 240.642 25 236.5C25 232.358 21.6421 229 17.5 229C13.3579 229 10 232.358 10 236.5C10 240.642 13.3579 244 17.5 244Z" fill="#EDD0F4"/>
<path d="M301 187L300 316" stroke="url(#paint12_linear)" stroke-width="6"/>
<path d="M301 187L300 316" stroke="url(#paint13_linear)" stroke-width="6"/>
<path d="M301 187L300 316" stroke="url(#paint14_linear)" stroke-width="6"/>
<path d="M300.5 324C304.642 324 308 320.642 308 316.5C308 312.358 304.642 309 300.5 309C296.358 309 293 312.358 293 316.5C293 320.642 296.358 324 300.5 324Z" fill="#EDD0F4"/>
<path d="M32 374V468" stroke="url(#paint15_linear)" stroke-width="6"/>
<path d="M32 374V468" stroke="url(#paint16_linear)" stroke-width="6"/>
<path d="M32 374V468" stroke="url(#paint17_linear)" stroke-width="6"/>
<path d="M32.5 476C36.6421 476 40 472.642 40 468.5C40 464.358 36.6421 461 32.5 461C28.3579 461 25 464.358 25 468.5C25 472.642 28.3579 476 32.5 476Z" fill="#F4EAD0"/>
<path d="M44 375V425" stroke="url(#paint18_linear)" stroke-width="6"/>
<path d="M44 375V425" stroke="url(#paint19_linear)" stroke-width="6"/>
<path d="M44 375V425" stroke="url(#paint20_linear)" stroke-width="6"/>
<path d="M44.5 433C48.6421 433 52 429.642 52 425.5C52 421.358 48.6421 418 44.5 418C40.3579 418 37 421.358 37 425.5C37 429.642 40.3579 433 44.5 433Z" fill="#F4EAD0"/>
<path d="M300 375V410" stroke="url(#paint21_linear)" stroke-width="6"/>
<path d="M300 375V410" stroke="url(#paint22_linear)" stroke-width="6"/>
<path d="M300 375V410" stroke="url(#paint23_linear)" stroke-width="6"/>
<path d="M300.5 418C304.642 418 308 414.642 308 410.5C308 406.358 304.642 403 300.5 403C296.358 403 293 406.358 293 410.5C293 414.642 296.358 418 300.5 418Z" fill="#F4EAD0"/>
<path d="M17 374V409" stroke="url(#paint24_linear)" stroke-width="6"/>
<path d="M17 374V409" stroke="url(#paint25_linear)" stroke-width="6"/>
<path d="M17 374V409" stroke="url(#paint26_linear)" stroke-width="6"/>
<path d="M17.5 417C21.6421 417 25 413.642 25 409.5C25 405.358 21.6421 402 17.5 402C13.3579 402 10 405.358 10 409.5C10 413.642 13.3579 417 17.5 417Z" fill="#F4EAD0"/>
<defs>
<linearGradient id="paint0_linear" x1="-nan" y1="-nan" x2="-nan" y2="-nan" gradientUnits="userSpaceOnUse">
<stop stop-color="#474747"/>
<stop offset="1" stop-color="#727272"/>
</linearGradient>
<linearGradient id="paint1_linear" x1="-nan" y1="-nan" x2="-nan" y2="-nan" gradientUnits="userSpaceOnUse">
<stop stop-color="#474747"/>
<stop offset="1" stop-color="#727272"/>
</linearGradient>
<linearGradient id="paint2_linear" x1="-nan" y1="-nan" x2="-nan" y2="-nan" gradientUnits="userSpaceOnUse">
<stop stop-color="#474747"/>
<stop offset="1" stop-color="#727272"/>
</linearGradient>
<linearGradient id="paint3_linear" x1="-nan" y1="-nan" x2="-nan" y2="-nan" gradientUnits="userSpaceOnUse">
<stop offset="0.572917" stop-color="#858585"/>
<stop offset="1" stop-color="#959595"/>
</linearGradient>
<linearGradient id="paint4_linear" x1="-nan" y1="-nan" x2="-nan" y2="-nan" gradientUnits="userSpaceOnUse">
<stop offset="0.572917" stop-color="#858585"/>
<stop offset="1" stop-color="#959595"/>
</linearGradient>
<linearGradient id="paint5_linear" x1="-nan" y1="-nan" x2="-nan" y2="-nan" gradientUnits="userSpaceOnUse">
<stop offset="0.572917" stop-color="#858585"/>
<stop offset="1" stop-color="#959595"/>
</linearGradient>
<linearGradient id="paint6_linear" x1="44.5" y1="184.003" x2="43.5" y2="349.003" gradientUnits="userSpaceOnUse">
<stop offset="0.572917" stop-color="#858585"/>
<stop offset="1" stop-color="#959595"/>
</linearGradient>
<linearGradient id="paint7_linear" x1="44.5" y1="184.003" x2="43.5" y2="349.003" gradientUnits="userSpaceOnUse">
<stop offset="0.572917" stop-color="#858585"/>
<stop offset="1" stop-color="#959595"/>
</linearGradient>
<linearGradient id="paint8_linear" x1="44.5" y1="184.003" x2="43.5" y2="349.003" gradientUnits="userSpaceOnUse">
<stop offset="0.572917" stop-color="#858585"/>
<stop offset="1" stop-color="#959595"/>
</linearGradient>
<linearGradient id="paint9_linear" x1="-nan" y1="-nan" x2="-nan" y2="-nan" gradientUnits="userSpaceOnUse">
<stop offset="0.572917" stop-color="#858585"/>
<stop offset="1" stop-color="#959595"/>
</linearGradient>
<linearGradient id="paint10_linear" x1="-nan" y1="-nan" x2="-nan" y2="-nan" gradientUnits="userSpaceOnUse">
<stop offset="0.572917" stop-color="#858585"/>
<stop offset="1" stop-color="#959595"/>
</linearGradient>
<linearGradient id="paint11_linear" x1="-nan" y1="-nan" x2="-nan" y2="-nan" gradientUnits="userSpaceOnUse">
<stop offset="0.572917" stop-color="#858585"/>
<stop offset="1" stop-color="#959595"/>
</linearGradient>
<linearGradient id="paint12_linear" x1="301.5" y1="187.004" x2="300.5" y2="316.004" gradientUnits="userSpaceOnUse">
<stop offset="0.572917" stop-color="#858585"/>
<stop offset="1" stop-color="#959595"/>
</linearGradient>
<linearGradient id="paint13_linear" x1="301.5" y1="187.004" x2="300.5" y2="316.004" gradientUnits="userSpaceOnUse">
<stop offset="0.572917" stop-color="#858585"/>
<stop offset="1" stop-color="#959595"/>
</linearGradient>
<linearGradient id="paint14_linear" x1="301.5" y1="187.004" x2="300.5" y2="316.004" gradientUnits="userSpaceOnUse">
<stop offset="0.572917" stop-color="#858585"/>
<stop offset="1" stop-color="#959595"/>
</linearGradient>
<linearGradient id="paint15_linear" x1="-nan" y1="-nan" x2="-nan" y2="-nan" gradientUnits="userSpaceOnUse">
<stop offset="0.453125" stop-color="#727272"/>
<stop offset="1" stop-color="#9E9E9E"/>
</linearGradient>
<linearGradient id="paint16_linear" x1="-nan" y1="-nan" x2="-nan" y2="-nan" gradientUnits="userSpaceOnUse">
<stop offset="0.453125" stop-color="#727272"/>
<stop offset="1" stop-color="#9E9E9E"/>
</linearGradient>
<linearGradient id="paint17_linear" x1="-nan" y1="-nan" x2="-nan" y2="-nan" gradientUnits="userSpaceOnUse">
<stop offset="0.453125" stop-color="#727272"/>
<stop offset="1" stop-color="#9E9E9E"/>
</linearGradient>
<linearGradient id="paint18_linear" x1="-nan" y1="-nan" x2="-nan" y2="-nan" gradientUnits="userSpaceOnUse">
<stop offset="0.453125" stop-color="#727272"/>
<stop offset="1" stop-color="#9E9E9E"/>
</linearGradient>
<linearGradient id="paint19_linear" x1="-nan" y1="-nan" x2="-nan" y2="-nan" gradientUnits="userSpaceOnUse">
<stop offset="0.453125" stop-color="#727272"/>
<stop offset="1" stop-color="#9E9E9E"/>
</linearGradient>
<linearGradient id="paint20_linear" x1="-nan" y1="-nan" x2="-nan" y2="-nan" gradientUnits="userSpaceOnUse">
<stop offset="0.453125" stop-color="#727272"/>
<stop offset="1" stop-color="#9E9E9E"/>
</linearGradient>
<linearGradient id="paint21_linear" x1="-nan" y1="-nan" x2="-nan" y2="-nan" gradientUnits="userSpaceOnUse">
<stop offset="0.453125" stop-color="#727272"/>
<stop offset="1" stop-color="#9E9E9E"/>
</linearGradient>
<linearGradient id="paint22_linear" x1="-nan" y1="-nan" x2="-nan" y2="-nan" gradientUnits="userSpaceOnUse">
<stop offset="0.453125" stop-color="#727272"/>
<stop offset="1" stop-color="#9E9E9E"/>
</linearGradient>
<linearGradient id="paint23_linear" x1="-nan" y1="-nan" x2="-nan" y2="-nan" gradientUnits="userSpaceOnUse">
<stop offset="0.453125" stop-color="#727272"/>
<stop offset="1" stop-color="#9E9E9E"/>
</linearGradient>
<linearGradient id="paint24_linear" x1="-nan" y1="-nan" x2="-nan" y2="-nan" gradientUnits="userSpaceOnUse">
<stop offset="0.453125" stop-color="#727272"/>
<stop offset="1" stop-color="#9E9E9E"/>
</linearGradient>
<linearGradient id="paint25_linear" x1="-nan" y1="-nan" x2="-nan" y2="-nan" gradientUnits="userSpaceOnUse">
<stop offset="0.453125" stop-color="#727272"/>
<stop offset="1" stop-color="#9E9E9E"/>
</linearGradient>
<linearGradient id="paint26_linear" x1="-nan" y1="-nan" x2="-nan" y2="-nan" gradientUnits="userSpaceOnUse">
<stop offset="0.453125" stop-color="#727272"/>
<stop offset="1" stop-color="#9E9E9E"/>
</linearGradient>
</defs>
</svg>
